<svg xmlns="http://www.w3.org/2000/svg" viewBox="0 0 195.54 243.5"><defs><style>.cls-1,.cls-6{fill:#1d1d1b;}.cls-1,.cls-2,.cls-3,.cls-6,.cls-7{stroke:#1d1d1b;}.cls-1,.cls-2,.cls-3,.cls-7{stroke-linecap:round;}.cls-1,.cls-2,.cls-3{stroke-linejoin:round;}.cls-2,.cls-3,.cls-7{fill:none;}.cls-3{stroke-width:6px;}.cls-4{fill:#439468;}.cls-5{fill:#71ad8c;}.cls-6,.cls-7{stroke-miterlimit:10;}.cls-6{stroke-width:0.5px;}.cls-7{stroke-width:4px;}.cls-8{fill:#fff;}</style></defs><g id="Ebene_1" data-name="Ebene 1"><path class="cls-1" d="M139.4,61c0-6.23.41-9.08-1-11.31-4-6.15-15.86-5.38-24-5.38l-7.23-.14c-2.26,0-2.26-3.16.35-3.16l11.42,0c4.36,0,16.8-.71,22.31,6.81,5.5-7.52,17.94-6.81,22.3-6.81l11.42,0c2.62,0,2.62,3.16.35,3.16l-7.23.14c-8.16,0-20-.77-24,5.38-1.45,2.23-1,5.08-1,11.31h0" transform="translate(-43.23 -24.93)"/><path class="cls-2" d="M176.14,41" transform="translate(-43.23 -24.93)"/><path class="cls-2" d="M141.14,61" transform="translate(-43.23 -24.93)"/><path class="cls-3" d="M53.75,128.35" transform="translate(-43.23 -24.93)"/></g><g id="Ebene_3" data-name="Ebene 3"><path class="cls-1" d="M141,97a15.42,15.42,0,0,0,3-.28c.89-.11,3.15-.62,4.7-.86.74-.11,1.29-.21,1.52-.25,4.6-.84,17.4-3.33,26.43-4.72A119.27,119.27,0,0,1,194,89c12-.22,13.15,0,25.41,1.46,1.93.23,6,.7,16.12,2.72a2.88,2.88,0,0,1,1.88,1.22c1,1.21.71,2.34.78,6.71,0,2.77.1,2.86-.1,3.4-.8,2.15-3,2.23-5,4.58a11.34,11.34,0,0,0-2,3.91c-2.89,8-1.61,16.31-5.53,23.73-.77,1.46-3,6.13-8,8.5-4.72,2.24-9,2.87-15.64,3.77a120.84,120.84,0,0,1-15.77,1.16,49.87,49.87,0,0,1-5.39-.08c-10.45-1.27-17.11-9.45-18.75-11.59s-2.87-4.76-5.25-9.85c-3.72-7.93-4.51-10.06-6.75-14.42C149.41,112.9,146,107,141,107s-8.41,5.9-9.08,7.22c-2.24,4.36-3,6.49-6.75,14.42-2.38,5.09-3.57,7.64-5.25,9.85s-8.3,10.32-18.75,11.59a49.87,49.87,0,0,1-5.39.08A120.84,120.84,0,0,1,80,149c-6.59-.9-10.92-1.53-15.64-3.77-5-2.37-7.19-7-8-8.5C52.49,129.31,53.77,121,50.88,113a11.34,11.34,0,0,0-2-3.91c-2-2.35-4.19-2.43-5-4.58-.2-.54-.14-.63-.1-3.4.07-4.37-.22-5.5.78-6.71a2.88,2.88,0,0,1,1.88-1.22c10.15-2,14.19-2.49,16.12-2.72C74.81,89,76,88.78,88,89a119.27,119.27,0,0,1,17.39,1.89c9,1.39,21.83,3.88,26.43,4.72.23,0,.78.14,1.52.25,1.55.24,3.81.75,4.7.86A15.42,15.42,0,0,0,141,97Z" transform="translate(-43.23 -24.93)"/><path class="cls-4" d="M226.9,161.8c3.64-1.92,4.68-3.65,5.92-7.38a71,71,0,0,1-3.32,17.41h0a11.7,11.7,0,0,1-4.35,3.54c-1.58.88-2.82,1.13-5.52,1.45-3.17.37-6.91.68-8.6.81-4,.3-6.24.44-8,.56-3.93.27-4-11.48,0-11.88,2-.2,6.66-.84,7.93-.95,3.33-.29,6.59-1,9.33-1.48A27.72,27.72,0,0,0,226.9,161.8Z" transform="translate(-43.23 -24.93)"/><path class="cls-4" d="M79,166.32c3.93.4,3.9,12.15,0,11.88-1.76-.12-4-.26-8-.56-1.69-.13-5.43-.44-8.6-.81-2.7-.32-3.94-.57-5.52-1.45a11.66,11.66,0,0,1-4.36-3.55,70.56,70.56,0,0,1-3.33-17.41c1.25,3.74,2.29,5.46,5.93,7.38a27.72,27.72,0,0,0,6.64,2.09c2.74.48,6,1.19,9.33,1.48C72.35,165.48,77,166.12,79,166.32Z" transform="translate(-43.23 -24.93)"/><path class="cls-4" d="M203.83,210.3a80.84,80.84,0,0,0,11.7-6c-9.65,18.29-20,33.16-21.24,34.38-3.42,3.31-9.23,3.56-19.14,4.07C171.68,242.91,158,244,141,244s-30.68-1.09-34.15-1.27c-9.91-.51-15.72-.76-19.14-4.07-1.27-1.22-11.59-16.09-21.24-34.38a80.84,80.84,0,0,0,11.7,6,85.58,85.58,0,0,0,19.89,5.94A287.09,287.09,0,0,0,141,219a287.09,287.09,0,0,0,42.94-2.76A85.58,85.58,0,0,0,203.83,210.3Z" transform="translate(-43.23 -24.93)"/><path class="cls-5" d="M232.86,151.27c0,.25,0,.49,0,.73,0,.79,0,1.6,0,2.42-1.24,3.73-2.28,5.46-5.92,7.38a27.72,27.72,0,0,1-6.64,2.09c-2.74.48-6,1.19-9.33,1.48-1.27.11-5.94.75-7.93.95-3.93.4-3.9,12.15,0,11.88,1.75-.12,4-.26,8-.56,1.69-.13,5.43-.44,8.6-.81,2.7-.32,3.94-.57,5.52-1.45a11.7,11.7,0,0,0,4.35-3.54c-3.26,10.67-8.5,22.1-14,32.44a80.84,80.84,0,0,1-11.7,6,85.58,85.58,0,0,1-19.89,5.94A287.09,287.09,0,0,1,141,219a287.09,287.09,0,0,1-42.94-2.76,85.58,85.58,0,0,1-19.89-5.94,80.84,80.84,0,0,1-11.7-6c-5.46-10.34-10.7-21.77-14-32.45a11.66,11.66,0,0,0,4.36,3.55c1.58.88,2.82,1.13,5.52,1.45,3.17.37,6.91.68,8.6.81,4,.3,6.23.44,8,.56,3.93.27,4-11.48,0-11.88-2-.2-6.66-.84-7.93-.95-3.33-.29-6.59-1-9.33-1.48a27.72,27.72,0,0,1-6.64-2.09c-3.64-1.92-4.68-3.64-5.93-7.38,0-.82,0-1.63,0-2.42a61.44,61.44,0,0,1,2.6-17.22,24.43,24.43,0,0,0,1.92,4.83c.82,1.56,3.17,6.59,8.56,9.14,5.09,2.41,9.75,3.09,16.83,4.07a131.94,131.94,0,0,0,17,1.24,58,58,0,0,0,5.81-.08c11.24-1.37,18.78-10.44,20.29-12.25,1.91-2.29,3.25-5,5.82-10.51,4-8.54,5-10.75,7.15-15.55,2.4-5.26,5.11-5.26,5.89-5.26,1,0,3,0,5.89,5.26,2.52,4.63,3.15,7,7.15,15.55,2.57,5.47,3.91,8.22,5.82,10.51,1.51,1.81,9,10.88,20.29,12.25a58,58,0,0,0,5.81.08,131.94,131.94,0,0,0,17-1.24c7.08-1,11.74-1.66,16.83-4.07,5.39-2.55,7.74-7.58,8.56-9.14a24.43,24.43,0,0,0,1.92-4.83A62.93,62.93,0,0,1,232.86,151.27Z" transform="translate(-43.23 -24.93)"/><path class="cls-6" d="M141,250l54.44,0,19.74,17.9c0-6.54,3-6.75,16.21-6.75.69,0,0-.47-.08-.51-1.07-1.5-13.29-12.89-29.55-26.28a86,86,0,0,1-5.56,7.85c-3.43,3.31-9.24,3.56-19.15,4.07-3.46.17-19.05,1.27-36.05,1.27s-32.59-1.1-36-1.27c-9.91-.51-15.73-.76-19.15-4.07a83.83,83.83,0,0,1-5.56-7.85C64,247.72,51.76,259.11,50.69,260.61c0,0-.78.51-.08.51,13.23,0,16.21.21,16.21,6.75L86.56,250Z" transform="translate(-43.23 -24.93)"/><line class="cls-7" x1="40.77" y1="23.93" x2="65.67" y2="2"/><line class="cls-7" x1="154.31" y1="23.93" x2="129.41" y2="2"/></g><g id="Ebene_4" data-name="Ebene 4"><path class="cls-8" d="M62.47,120c-3.46-7-.3-14-.3-14C65,99.57,68.88,98,70,97.45c0,0,7.9-4.13,16.67-2.56A2,2,0,0,1,88,95.6c.79,1.15-.51,3.23-.61,3.38a6.79,6.79,0,0,1-5.06,3.09c-3.92.54-5.63.84-7.78,1.92-5.93,3-8.75,13.14-9,14.31a3.25,3.25,0,0,1-.41,1.06c-.46.76-1.38,1.53-2.07,1.31A1.22,1.22,0,0,1,62.47,120Z" transform="translate(-43.23 -24.93)"/><path class="cls-8" d="M164.06,120c-3.47-7-.31-14-.31-14,2.87-6.44,6.71-8,7.86-8.56,0,0,7.89-4.13,16.66-2.56a1.94,1.94,0,0,1,1.32.71c.79,1.15-.51,3.23-.61,3.38a6.79,6.79,0,0,1-5,3.09c-3.93.54-5.64.84-7.79,1.92-5.93,3-8.75,13.14-8.95,14.31a3.11,3.11,0,0,1-.4,1.06c-.47.76-1.39,1.53-2.08,1.31A1.16,1.16,0,0,1,164.06,120Z" transform="translate(-43.23 -24.93)"/><path class="cls-5" d="M202.76,77.71H79.24a101.85,101.85,0,0,1,18.24-3.22C106.15,73.92,111.2,74,141,74s34.85-.08,43.52.49A101.85,101.85,0,0,1,202.76,77.71Z" transform="translate(-43.23 -24.93)"/><path class="cls-5" d="M207.54,85.49c-3.54-.22-6.76-.19-13.16-.07a128.17,128.17,0,0,0-18.64,1.83c-9.72,1.49-23,4.37-27.9,5.27l-2.8.53a27.07,27.07,0,0,1-4,.54,27.07,27.07,0,0,1-4-.54l-2.8-.53c-4.95-.9-18.18-3.78-27.9-5.27a128.17,128.17,0,0,0-18.64-1.83c-6.4-.12-9.62-.15-13.16.07,1.67-2.81,3.28-5.43,4.77-7.78H202.77C204.26,80.06,205.87,82.68,207.54,85.49Z" transform="translate(-43.23 -24.93)"/><path class="cls-4" d="M194.29,65.34a128.36,128.36,0,0,1,8.47,12.37,101.85,101.85,0,0,0-18.24-3.22C175.85,73.92,170.8,74,141,74s-34.85-.08-43.52.49a101.85,101.85,0,0,0-18.24,3.22,128.36,128.36,0,0,1,8.47-12.37c3.42-3.31,9.23-3.57,19.14-4.07,3.47-.18,15.68-.27,34.15-.27s30.68.09,34.15.27C185.06,61.77,190.87,62,194.29,65.34Z" transform="translate(-43.23 -24.93)"/></g></svg>