<?xml version="1.0" encoding="UTF-8" standalone="no" ?>
<!DOCTYPE svg PUBLIC "-//W3C//DTD SVG 1.1//EN" "http://www.w3.org/Graphics/SVG/1.1/DTD/svg11.dtd">
<svg xmlns="http://www.w3.org/2000/svg" xmlns:xlink="http://www.w3.org/1999/xlink" version="1.1" width="700" height="1000" viewBox="0 0 700 1000" xml:space="preserve">
<desc>Created with Fabric.js 5.2.4</desc>
<defs>
</defs>
<rect x="0" y="0" width="100%" height="100%" fill="transparent"></rect>
<g transform="matrix(1 0 0 1 350 500)" id="faa9de15-3b82-48ac-8a3b-daa87abe73e2"  >
<rect style="stroke: none; stroke-width: 1; stroke-dasharray: none; stroke-linecap: butt; stroke-dashoffset: 0; stroke-linejoin: miter; stroke-miterlimit: 4; fill: rgb(255,255,255); fill-rule: nonzero; opacity: 1; visibility: hidden;" vector-effect="non-scaling-stroke"  x="-350" y="-500" rx="0" ry="0" width="700" height="1000" />
</g>
<g transform="matrix(Infinity NaN NaN Infinity 0 0)" id="1586d15b-ee35-43a4-8db9-ed95ede9b124"  >
</g>
<g transform="matrix(-0.09 0 0 -0.09 350 500)"  >
<path style="stroke: red; stroke-width:1; stroke-dasharray: none; stroke-linecap: butt; stroke-dashoffset: 0; stroke-linejoin: miter; stroke-miterlimit: 4; fill: crimson; fill-rule: nonzero; opacity: 1;" vector-effect="non-scaling-stroke"  transform=" translate(-4669.22, -6253.84)" d="M 4435 11769 C 3906 11730 3441 11605 2985 11379 C 2652 11215 2422 11060 2135 10809 C 1458 10216 990 9334 886 8449 C 877 8376 865 8279 860 8235 C 837 8050 855 7624 896 7370 C 992 6779 1207 6245 1545 5760 C 1573 5719 1628 5636 1665 5575 C 1702 5515 1761 5420 1795 5365 C 1849 5278 2082 4903 2244 4640 C 2273 4593 2337 4490 2387 4410 C 2436 4330 2514 4204 2560 4130 C 2606 4056 2694 3914 2755 3815 C 2816 3716 2949 3502 3050 3340 C 3150 3178 3279 2971 3335 2880 C 3391 2789 3538 2553 3661 2355 C 3948 1892 4074 1688 4250 1405 C 4328 1279 4435 1105 4488 1020 C 4613 817 4669 730 4674 730 C 4676 730 4699 765 4725 808 C 4751 850 4783 901 4795 920 C 4807 939 4847 1002 4882 1060 C 4918 1118 4989 1233 5040 1315 C 5091 1398 5198 1570 5277 1698 C 5399 1896 5533 2113 5895 2695 C 5988 2844 6932 4366 7365 5065 C 7573 5401 7775 5722 7815 5780 C 7930 5948 7998 6064 8086 6240 C 8301 6671 8422 7086 8476 7579 C 8495 7756 8492 8238 8470 8395 C 8401 8906 8264 9345 8050 9740 C 7954 9917 7940 9941 7854 10070 C 7325 10865 6512 11437 5588 11664 C 5426 11704 5382 11712 5180 11739 C 4901 11777 4672 11787 4435 11769 z" stroke-linecap="round" />
</g>
<g transform="matrix(1.11 0 0 1.11 350 357.13)"  >
<path style="stroke: rgb(0,0,0); stroke-width: 0; stroke-dasharray: none; stroke-linecap: butt; stroke-dashoffset: 0; stroke-linejoin: miter; stroke-miterlimit: 4; fill: lightpink; fill-rule: nonzero; opacity: 1;" vector-effect="non-scaling-stroke"  transform=" translate(-256, -256)" d="M 400 32 L 112 32 C 85.49033200812191 32 64 53.49033200812191 64 80 L 64 400 C 63.99909290367137 413.6485150925965 69.81935981002681 426.64953629466794 80 435.74 L 80 454 C 80 468.35940349560065 91.64059650439937 480 106 480 L 134 480 C 148.35940349560062 480 160 468.35940349560065 160 454 L 160 448 L 352 448 L 352 454 C 352 468.35940349560065 363.64059650439935 480 378 480 L 406 480 C 420.35940349560065 480 432 468.35940349560065 432 454 L 432 435.74 C 442.1806401899732 426.64953629466794 448.00090709632866 413.6485150925965 448 400 L 448 80 C 448 53.49033200812191 426.5096679918781 32 400 32 z M 147.47 399.82 C 133.97289965854299 401.2889071099348 121.0180727662015 394.08081479920816 115.15054327990057 381.83738785033614 C 109.28301379359965 369.59396090146413 111.78017913786144 354.9806690131212 121.3804240754913 345.3804240754913 C 130.98066901312117 335.7801791378614 145.59396090146413 333.28301379359965 157.83738785033614 339.1505432799006 C 170.08081479920816 345.0180727662015 177.28890710993483 357.972899658543 175.82 371.46999999999997 C 174.19487910379902 386.4024757533486 162.40247575334863 398.194879103799 147.47 399.82 z M 236 288 L 112 288 C 103.16344400270731 288 96 280.8365559972927 96 272 L 96 144 C 96 135.1634440027073 103.16344400270731 128 112 128 L 236 128 C 238.2091389993232 128 240 129.7908610006768 240 132 L 240 284 C 240 286.20913899932316 238.2091389993232 288 236 288 z M 256 96 L 112.46 96 C 103.86 96 96.46 89.4 96.02 80.81 C 95.79805322050056 76.43148776117722 97.38249744112704 72.15370520397725 100.40311035995104 68.97620187697905 C 103.42372327877503 65.79869854998084 107.61586613132778 63.99985853520691 111.99999999999999 64 L 399.54 64 C 408.14000000000004 64 415.54 70.6 415.98 79.19 C 416.20194677949945 83.56851223882278 414.61750255887296 87.84629479602276 411.59688964004897 91.02379812302097 C 408.576276721225 94.20130145001917 404.3841338686722 96.0001414647931 400 96 L 256 96 z M 276 128 L 400 128 C 408.8365559972927 128 416 135.1634440027073 416 144 L 416 272 C 416 280.8365559972927 408.8365559972927 288 400 288 L 276 288 C 273.79086100067684 288 272 286.20913899932316 272 284 L 272 132 C 272 129.7908610006768 273.79086100067684 128 276 128 z M 336.18 371.47 C 334.7110928900652 357.97289965854304 341.91918520079184 345.01807276620156 354.16261214966386 339.1505432799006 C 366.40603909853587 333.2830137935997 381.0193309868788 335.78017913786147 390.6195759245087 345.38042407549136 C 400.21982086213853 354.9806690131212 402.71698620640035 369.59396090146413 396.84945672009945 381.83738785033614 C 390.98192723379856 394.08081479920816 378.0271003414571 401.2889071099348 364.5300000000001 399.82000000000005 C 349.5975242466514 398.19487910379905 337.805120896201 386.40247575334865 336.18 371.47 z" stroke-linecap="round" />
</g>
</svg>
